<svg width="64" height="64" viewBox="0 0 64 64" fill="none" xmlns="http://www.w3.org/2000/svg">
<g id="Icon">
<path id="Vector" d="M30.8313 64.0002L37.0343 56.9466L31.7009 54.28L39.498 45.3336H47.2343L41.0314 52.3872L46.3647 55.0538L38.5676 64.0002H30.8313ZM14.098 64.0002L20.3009 56.9466L14.9675 54.28L22.7647 45.3336H30.5009L24.298 52.3872L29.6313 55.0538L21.8343 64.0002H14.098ZM19.9995 42.7944C15.8594 42.7944 12.3188 41.3239 9.37775 38.3828C6.43668 35.4418 4.96615 31.9012 4.96615 27.7611C4.96615 24.0084 6.19899 20.7251 8.66468 17.9111C11.1304 15.0971 14.1845 13.4244 17.827 12.893C19.2918 10.3596 21.2787 8.36545 23.7879 6.91038C26.2971 5.45531 29.0341 4.72778 31.9989 4.72778C36.0418 4.72778 39.565 6.00556 42.5683 8.56112C45.5717 11.1167 47.4164 14.3162 48.1024 18.1596C51.2009 18.4901 53.7973 19.8152 55.8915 22.135C57.9857 24.4548 59.0328 27.2191 59.0328 30.4278C59.0328 33.8568 57.8305 36.7751 55.4259 39.1828C53.0213 41.5906 50.1013 42.7944 46.6661 42.7944H19.9995ZM19.9995 36.7278H46.6661C48.4301 36.7278 49.9211 36.1191 51.1391 34.9018C52.3571 33.6846 52.9661 32.1945 52.9661 30.4316C52.9661 28.6686 52.3571 27.1773 51.1391 25.9575C49.9211 24.7377 48.4301 24.1278 46.6661 24.1278H42.2995V21.0944C42.2995 18.262 41.2911 15.8372 39.2742 13.82C37.2574 11.803 34.8329 10.7944 32.0007 10.7944C29.9409 10.7944 28.0625 11.3536 26.3654 12.472C24.6683 13.5903 23.3913 15.0901 22.5343 16.9712L21.7765 18.7944H19.8821C17.4453 18.8798 15.3613 19.7866 13.6299 21.5148C11.8985 23.2431 11.0328 25.3234 11.0328 27.7558C11.0328 30.2308 11.9081 32.3449 13.6587 34.098C15.4094 35.8512 17.523 36.7278 19.9995 36.7278Z" fill="#2C2C2C"/>
</g>
</svg>
